<svg fill="#EC5D57" xmlns:dc="http://purl.org/dc/elements/1.1/" xmlns:cc="http://creativecommons.org/ns#" xmlns:rdf="http://www.w3.org/1999/02/22-rdf-syntax-ns#" xmlns:svg="http://www.w3.org/2000/svg" xmlns="http://www.w3.org/2000/svg" xmlns:sodipodi="http://sodipodi.sourceforge.net/DTD/sodipodi-0.dtd" xmlns:inkscape="http://www.inkscape.org/namespaces/inkscape" version="1.1" x="0px" y="0px" viewBox="0 0 100 100"><g transform="translate(0,-952.36218)"><path style="color:#000000;enable-background:accumulate;" d="m 35.125,964.36216 -17.0625,10.0625 3.9375,6.9375 17.0625,-10.03125 -3.9375,-6.96875 z m 29.875,0 -3.9375,6.96875 17.0625,10.03125 3.9375,-6.9375 L 65,964.36216 z m -15,10 c -18.22538,0 -33,14.77464 -33,33.00004 0,18.2254 14.77462,33 33,33 18.22538,0 33,-14.7746 33,-33 0,-18.2254 -14.77462,-33.00004 -33,-33.00004 z m -1,6 2,0 0,4 -2,0 0,-4 z m -11.625,3.125 2,3.46875 -1.75,1 -2,-3.46875 1.75,-1 z m 25.25,0 1.75,1 -2,3.46875 -1.75,-1 2,-3.46875 z m -20.9375,5.90624 8.875,15.2813 9.40625,-5.375 2,3.4687 -11.125,6.375 a 2.0000631,2.0000631 0 0 1 -2.71875,-0.75 l -9.875,-17 3.4375,-2 z m -14.5625,3.625 3.46875,2 -1,1.7188 -3.46875,-2 1,-1.7188 z m 45.75,0 1,1.7188 -3.46875,2 -1,-1.7188 3.46875,-2 z M 23,1006.3622 l 4,0 0,2 -4,0 0,-2 z m 50,0 4,0 0,2 -4,0 0,-2 z m -43.40625,11.6562 1,1.7188 -3.46875,2 -1,-1.7188 3.46875,-2 z m 40.8125,0 3.46875,2 -1,1.7188 -3.46875,-2 1,-1.7188 z m -32.78125,8.7813 1.75,1 -2,3.4687 -1.75,-1 2,-3.4687 z m 24.75,0 2,3.4687 -1.75,1 -2,-3.4687 1.75,-1 z m -13.375,3.5625 2,0 0,4 -2,0 0,-4 z" fill="#EC5D57" stroke="none" marker="none" visibility="visible" display="inline" overflow="visible"></path></g></svg>