<svg fill="#E61B27" xmlns="http://www.w3.org/2000/svg" xmlns:xlink="http://www.w3.org/1999/xlink" version="1.1" x="0px" y="0px" viewBox="0 0 100 100" style="enable-background:new 0 0 100 100;" xml:space="preserve"><path d="M73.2,84.9C84,77.1,91.1,64.4,91.1,50.1C91.1,26.3,71.8,7,48.1,7C24.3,7,5,26.3,5,50.1C5,72.8,22.6,91.4,44.9,93v0h5.4H95  v-8.1H73.2z M47.6,19.8c5.8,0,10.5,4.7,10.5,10.5c0,5.8-4.7,10.5-10.5,10.5c-5.8,0-10.5-4.7-10.5-10.5  C37.1,24.5,41.8,19.8,47.6,19.8z M27.9,61c-5.8,0-10.5-4.7-10.5-10.5S22.1,40,27.9,40s10.5,4.7,10.5,10.5S33.7,61,27.9,61z   M47.6,81.1c-5.8,0-10.5-4.7-10.5-10.5c0-5.8,4.7-10.5,10.5-10.5c5.8,0,10.5,4.7,10.5,10.5C58.1,76.4,53.4,81.1,47.6,81.1z   M56.7,50.5c0-5.8,4.7-10.5,10.5-10.5s10.5,4.7,10.5,10.5S73,61,67.2,61S56.7,56.3,56.7,50.5z"></path></svg>