<svg xmlns="http://www.w3.org/2000/svg" xmlns:xlink="http://www.w3.org/1999/xlink" version="1.1" x="0px" y="0px" viewBox="0 0 100 100" style="enable-background:new 0 0 100 100;" xml:space="preserve"><g><path d="M46.8,87.3h40.7v-6H67C77.3,74.7,84.1,63.1,84.1,50c0-20.6-16.7-37.3-37.3-37.3S9.5,29.4,9.5,50S26.2,87.3,46.8,87.3z    M46.8,74.6c-4.9,0-8.9-4-8.9-8.9s4-8.9,8.9-8.9c4.9,0,8.9,4,8.9,8.9S51.7,74.6,46.8,74.6z M62.4,41.1c4.9,0,8.9,4,8.9,8.9   s-4,8.9-8.9,8.9s-8.9-4-8.9-8.9S57.5,41.1,62.4,41.1z M46.8,25.4c4.9,0,8.9,4,8.9,8.9s-4,8.9-8.9,8.9c-4.9,0-8.9-4-8.9-8.9   S41.9,25.4,46.8,25.4z M31.1,41.1c4.9,0,8.9,4,8.9,8.9s-4,8.9-8.9,8.9c-4.9,0-8.9-4-8.9-8.9S26.2,41.1,31.1,41.1z"></path></g></svg>