<svg fill="#EC5D57" xmlns="http://www.w3.org/2000/svg" xmlns:xlink="http://www.w3.org/1999/xlink" version="1.1" x="0px" y="0px" viewBox="0 0 100 100" enable-background="new 0 0 100 100" xml:space="preserve"><g enable-background="new    "><g><g><path fill-rule="evenodd" clip-rule="evenodd" d="M92,54c-1.656,0-3,1.343-3,3v2h-3c-1.656,0-3,1.343-3,3h-2     c-1.656,0-3,1.343-3,3v6c0,1.657,1.344,3,3,3h2c0,1.657,1.344,3,3,3h3v1c0,1.657,1.344,3,3,3s3-1.343,3-3V57     C95,55.343,93.656,54,92,54z M51,54H17c-1.104,0-2,0.896-2,2v16c0,1.104,0.896,2,2,2h34c1.104,0,2-0.896,2-2V56     C53,54.896,52.104,54,51,54z M73,47H11c-1.657,0-3,1.343-3,3v37c0,1.657,1.343,3,3,3h62c1.656,0,3-1.343,3-3V50     C76,48.343,74.656,47,73,47z M55,73c0,1.657-1.344,3-3,3H16c-1.657,0-3-1.343-3-3V55c0-1.657,1.343-3,3-3h36c1.656,0,3,1.343,3,3     V73z"></path></g></g></g><g enable-background="new    "><g><g><path fill-rule="evenodd" clip-rule="evenodd" d="M62,9c-9.941,0-18,8.059-18,18s8.059,18,18,18s18-8.059,18-18S71.941,9,62,9z      M71,16c1.656,0,3,1.343,3,3s-1.344,3-3,3s-3-1.343-3-3S69.344,16,71,16z M62,12c1.656,0,3,1.343,3,3s-1.344,3-3,3s-3-1.343-3-3     S60.344,12,62,12z M47,27c0-1.657,1.343-3,3-3c1.656,0,3,1.343,3,3s-1.344,3-3,3C48.343,30,47,28.657,47,27z M53,39     c-1.656,0-3-1.343-3-3s1.344-3,3-3s3,1.343,3,3S54.656,39,53,39z M53,21c-1.656,0-3-1.343-3-3s1.344-3,3-3s3,1.343,3,3     S54.656,21,53,21z M62,43c-1.656,0-3-1.343-3-3s1.344-3,3-3s3,1.343,3,3S63.656,43,62,43z M62,32c-2.762,0-5-2.238-5-5     s2.238-5,5-5s5,2.238,5,5S64.762,32,62,32z M71,39c-1.656,0-3-1.343-3-3s1.344-3,3-3s3,1.343,3,3S72.656,39,71,39z M75,30     c-1.656,0-3-1.343-3-3s1.344-3,3-3s3,1.343,3,3S76.656,30,75,30z M62,24c-1.656,0-3,1.343-3,3s1.344,3,3,3s3-1.343,3-3     S63.656,24,62,24z"></path></g></g></g><g enable-background="new    "><g><g><path fill-rule="evenodd" clip-rule="evenodd" d="M23,9C13.059,9,5,17.059,5,27s8.059,18,18,18s18-8.059,18-18S32.941,9,23,9z      M32,16c1.657,0,3,1.343,3,3s-1.343,3-3,3s-3-1.343-3-3S30.343,16,32,16z M23,12c1.657,0,3,1.343,3,3s-1.343,3-3,3s-3-1.343-3-3     S21.343,12,23,12z M8,27c0-1.657,1.343-3,3-3s3,1.343,3,3s-1.343,3-3,3S8,28.657,8,27z M14,39c-1.657,0-3-1.343-3-3s1.343-3,3-3     s3,1.343,3,3S15.657,39,14,39z M14,21c-1.657,0-3-1.343-3-3s1.343-3,3-3s3,1.343,3,3S15.657,21,14,21z M23,43     c-1.657,0-3-1.343-3-3s1.343-3,3-3s3,1.343,3,3S24.657,43,23,43z M23,32c-2.761,0-5-2.238-5-5s2.239-5,5-5s5,2.238,5,5     S25.761,32,23,32z M32,39c-1.657,0-3-1.343-3-3s1.343-3,3-3s3,1.343,3,3S33.657,39,32,39z M36,30c-1.657,0-3-1.343-3-3     s1.343-3,3-3s3,1.343,3,3S37.657,30,36,30z M23,24c-1.657,0-3,1.343-3,3s1.343,3,3,3s3-1.343,3-3S24.657,24,23,24z"></path></g></g></g></svg>